<svg xmlns="http://www.w3.org/2000/svg" xmlns:xlink="http://www.w3.org/1999/xlink" width="100" height="20">
  <defs>
    <path id="a" d="M.62028 18.42934L.00072 1.92089C-.01974 1.3757.39831.91362.94284.8796L14.98442.002c.55427-.03464 1.03168.3866 1.06632.94087a1.0056 1.0056 0 01.00196.06272v17.98887c0 .55535-.4502 1.00555-1.00555 1.00555a1.00543 1.00543 0 01-.04512-.00101L1.58 19.39616c-.52273-.02348-.9401-.44393-.95972-.96682z"/>
  </defs>
  <g fill="none" fill-rule="evenodd">
    <path fill="#333" d="M26.64 15.8315c-.85334 0-1.67466-.11467-2.464-.344-.78934-.22933-1.44533-.54666-1.968-.952l.8-1.776c1.088.75734 2.30933 1.136 3.664 1.136.704 0 1.24533-.11467 1.624-.344.37867-.22933.568-.54666.568-.952 0-.36267-.17333-.64533-.52-.848-.34667-.20267-.96266-.4-1.848-.592-.992-.20267-1.784-.448-2.376-.736-.592-.288-1.024-.64266-1.296-1.064-.272-.42134-.408-.94133-.408-1.56 0-.68267.18933-1.29066.568-1.824.37867-.53334.90933-.952 1.592-1.256.68267-.304 1.472-.456 2.368-.456.8 0 1.57066.11733 2.312.352.74134.23467 1.33066.54933 1.768.944l-.8 1.776c-1.03467-.75734-2.12266-1.136-3.264-1.136-.65067 0-1.16266.12533-1.536.376s-.56.59466-.56 1.032c0 .256.072.46667.216.632.144.16533.384.312.72.44.336.128.81333.26133 1.432.4 1.45067.32 2.49333.73066 3.128 1.232.63467.50134.952 1.19466.952 2.08 0 1.06667-.41066 1.90666-1.232 2.52s-1.968.92-3.44.92zm10.464-1.792c.24533 0 .50133-.016.768-.048l-.128 1.76c-.30933.04267-.61867.064-.928.064-1.19467 0-2.06666-.26133-2.616-.784-.54934-.52267-.824-1.31733-.824-2.384v-3.008h-1.488v-1.808h1.488v-2.304h2.416v2.304h1.968v1.808h-1.968v2.992c0 .93867.43733 1.408 1.312 1.408zm5.616 1.776c-.832 0-1.56266-.168-2.192-.504-.62934-.336-1.11467-.81066-1.456-1.424-.34134-.61334-.512-1.336-.512-2.168 0-.832.17066-1.55466.512-2.168.34133-.61334.82666-1.08533 1.456-1.416s1.36-.496 2.192-.496c.832 0 1.56266.16533 2.192.496.62934.33067 1.11467.80266 1.456 1.416.34134.61334.512 1.336.512 2.168 0 .832-.17066 1.55466-.512 2.168-.34134.61334-.82666 1.088-1.456 1.424-.62934.336-1.36.504-2.192.504zm0-1.84c1.17334 0 1.76-.752 1.76-2.256 0-.75734-.152-1.32266-.456-1.696-.304-.37334-.73866-.56-1.304-.56-1.17334 0-1.76.752-1.76 2.256 0 1.504.58666 2.256 1.76 2.256zm10.848-4.352l-1.36.144c-.672.064-1.14667.25333-1.424.568-.27733.31467-.416.73333-.416 1.256v4.096h-2.416v-7.856h2.32v1.328c.39467-.90667 1.21066-1.40267 2.448-1.488l.704-.048.144 2zm7.02-1.776h2.368l-4.736 10.72h-2.448l1.504-3.312-3.232-7.408h2.512l1.984 4.992 2.048-4.992zm7.968-.208c.68267 0 1.28533.16533 1.808.496s.93067.80266 1.224 1.416c.29333.61334.44 1.32533.44 2.136 0 .81067-.14667 1.528-.44 2.152-.29333.624-.704 1.10933-1.232 1.456-.528.34667-1.128.52-1.8.52-.544 0-1.03466-.11467-1.472-.344-.43734-.22933-.77333-.54666-1.008-.952v1.168h-2.384v-11.28h2.416v4.48c.23467-.39467.568-.70133 1-.92.432-.21867.91466-.328 1.448-.328zm-.704 6.336c.56534 0 1.00267-.2 1.312-.6.30933-.4.464-.96266.464-1.688 0-.71467-.15467-1.26133-.464-1.64-.30933-.37867-.74666-.568-1.312-.568-.56534 0-1.00267.19466-1.312.584-.30933.38934-.464.94133-.464 1.656 0 .72534.15467 1.28266.464 1.672s.74666.584 1.312.584zm9.424 1.84c-.832 0-1.56266-.168-2.192-.504-.62934-.336-1.11467-.81066-1.456-1.424-.34134-.61334-.512-1.336-.512-2.168 0-.832.17066-1.55466.512-2.168.34134-.61334.82666-1.08533 1.456-1.416s1.36-.496 2.192-.496c.832 0 1.56266.16533 2.192.496.62934.33067 1.11467.80266 1.456 1.416.34133.61334.512 1.336.512 2.168 0 .832-.17067 1.55466-.512 2.168-.34134.61334-.82666 1.088-1.456 1.424-.62934.336-1.36.504-2.192.504zm0-1.84c1.17334 0 1.76-.752 1.76-2.256 0-.75734-.152-1.32266-.456-1.696-.304-.37334-.73866-.56-1.304-.56-1.17334 0-1.76.752-1.76 2.256 0 1.504.58666 2.256 1.76 2.256zm9.008 1.84c-.832 0-1.56266-.168-2.192-.504-.62934-.336-1.11467-.81066-1.456-1.424-.34134-.61334-.512-1.336-.512-2.168 0-.832.17066-1.55466.512-2.168.34134-.61334.82666-1.08533 1.456-1.416s1.36-.496 2.192-.496c.832 0 1.56266.16533 2.192.496.62934.33067 1.11467.80266 1.456 1.416.34134.61334.512 1.336.512 2.168 0 .832-.17066 1.55466-.512 2.168-.34134.61334-.82666 1.088-1.456 1.424-.62934.336-1.36.504-2.192.504zm0-1.84c1.17334 0 1.76-.752 1.76-2.256 0-.75734-.152-1.32266-.456-1.696-.304-.37334-.73866-.56-1.304-.56-1.17334 0-1.76.752-1.76 2.256 0 1.504.58666 2.256 1.76 2.256zM100 15.6875h-2.96l-3.008-3.504v3.504h-2.416v-11.28h2.416v6.784l2.896-3.344h2.88l-3.296 3.744 3.488 4.096z"/>
    <mask id="b" fill="#fff">
      <use xlink:href="#a"/>
    </mask>
    <use fill="#FF4785" fill-rule="nonzero" xlink:href="#a"/>
    <path fill="#FFF" fill-rule="nonzero" d="M11.8537 2.45832l.09592-2.3068L13.87795 0l.08307 2.37893c.0029.0828-.06188.15225-.14467.15514a.15.15 0 01-.09806-.03207l-.74363-.5858-.88043.66786c-.066.05006-.1601.03715-.21016-.02886a.15.15 0 01-.03037-.09688zM9.38755 7.53827c0 .39122 2.63518.20372 2.98894-.07108 0-2.6641-1.4295-4.06403-4.04713-4.06403-2.61764 0-4.08426 1.42172-4.08426 3.5543 0 3.71424 5.0125 3.78533 5.0125 5.81128 0 .56869-.27847.90635-.89111.90635-.79829 0-1.1139-.4077-1.07676-1.79387 0-.30071-3.04463-.39446-3.13745 0-.23637 3.3592 1.85648 4.32812 4.25134 4.32812 2.3206 0 4.13995-1.23693 4.13995-3.47614 0-3.98082-5.08676-3.8742-5.08676-5.84683 0-.79972.59408-.90635.9468-.90635.3713 0 1.03964.06545.98394 1.55825z" mask="url(#b)"/>
  </g>
</svg>
